<?xml version="1.0" standalone="no"?>
<!DOCTYPE svg PUBLIC "-//W3C//DTD SVG 20010904//EN"
 "http://www.w3.org/TR/2001/REC-SVG-20010904/DTD/svg10.dtd">
<svg version="1.0" xmlns="http://www.w3.org/2000/svg"
 width="2048.000000pt" height="2048.000000pt" viewBox="0 0 2048.000000 2048.000000"
 preserveAspectRatio="xMidYMid meet">

<g transform="translate(0.000000,2048.000000) scale(0.100000,-0.100000)"
fill="#000000" stroke="none">
<path d="M13585 15900 c-117 -24 -243 -96 -320 -183 -72 -82 -145 -250 -145
-334 l0 -23 -3927 -2 c-3674 -3 -3930 -4 -3959 -20 -45 -24 -92 -82 -104 -127
-7 -27 -9 -1545 -8 -4927 l3 -4889 31 -55 c22 -38 46 -64 79 -85 l48 -30 4956
0 4956 0 40 22 c46 24 75 54 101 103 18 34 19 152 22 4054 l2 4018 63 62 c35
33 82 72 106 86 91 54 90 51 25 94 -33 21 -89 61 -126 88 l-68 50 0 702 0 703
-23 44 c-16 29 -40 54 -72 74 l-48 30 -478 3 -478 3 -5 27 c-2 15 -8 48 -11
75 -10 79 -79 203 -154 277 -133 131 -334 194 -506 160z m285 -185 c116 -63
203 -182 231 -314 31 -150 -77 -360 -223 -434 -249 -126 -550 31 -599 312 -33
187 89 387 279 458 25 9 73 12 147 10 100 -2 115 -5 165 -32z m-4990 -694 c0
-5 -37 -23 -82 -41 -162 -63 -379 -189 -553 -319 -116 -88 -351 -319 -449
-441 -269 -338 -446 -711 -526 -1107 -51 -257 -53 -289 -56 -798 -1 -264 -7
-534 -13 -600 -16 -164 -67 -467 -101 -600 -37 -143 -141 -440 -219 -629 -99
-237 -235 -578 -299 -751 -234 -626 -352 -1230 -352 -1799 0 -254 34 -558 84
-743 17 -63 20 -61 -112 -69 -200 -13 -392 32 -654 153 l-78 36 0 3852 c0
2118 3 3855 7 3858 10 10 3403 8 3403 -2z m4359 -37 c91 -126 277 -214 451
-214 165 0 281 50 409 177 l84 83 418 0 419 0 0 -552 0 -553 -46 -45 c-32 -32
-64 -82 -112 -180 -59 -120 -75 -143 -141 -208 -41 -40 -114 -99 -162 -131
l-88 -58 97 -46 c53 -25 134 -60 180 -77 82 -32 259 -139 266 -163 3 -6 7
-122 10 -255 l6 -244 -68 64 c-230 217 -589 208 -804 -21 -107 -113 -158 -238
-158 -386 0 -197 85 -365 236 -468 230 -157 527 -135 729 54 l60 57 0 -509 c0
-280 -2 -509 -5 -509 -3 0 -16 16 -29 35 -47 69 -140 144 -234 190 -135 65
-137 65 -194 13 -26 -24 -91 -80 -143 -123 -52 -43 -109 -92 -127 -108 l-32
-30 94 -42 c174 -78 231 -120 297 -218 22 -32 52 -93 67 -133 l27 -75 133 106
c73 58 135 105 139 105 4 0 6 -1117 5 -2482 l-3 -2483 -950 -3 c-522 -1 -950
1 -950 5 0 4 23 40 51 80 104 151 161 313 174 498 5 72 2 111 -15 194 -35 170
-93 289 -196 400 l-54 58 116 369 c64 203 138 443 166 534 27 91 51 166 52
168 2 1 29 -8 62 -20 87 -32 243 -32 337 1 251 86 402 331 423 686 16 260 -50
530 -190 785 -32 58 -58 116 -58 130 0 14 26 104 57 200 131 408 145 457 145
496 0 50 -24 84 -71 101 -19 7 -198 62 -399 123 -552 169 -902 277 -1036 321
l-121 40 -16 67 c-38 161 -52 366 -37 541 12 146 47 366 63 401 8 15 62 55
144 105 130 80 221 146 298 216 l40 37 200 7 c110 3 213 11 228 17 60 23 72
100 32 211 -35 100 -79 169 -174 269 -137 145 -339 266 -626 374 -114 43 -141
57 -147 76 -4 13 -25 95 -47 183 -49 202 -92 318 -191 520 -228 462 -570 833
-1005 1090 -96 57 -252 135 -317 160 -27 10 -48 22 -48 26 0 5 499 9 1123 9
l1124 0 32 -46z m-3127 -824 c164 -16 284 -50 433 -124 160 -79 264 -156 387
-285 162 -170 265 -344 338 -567 42 -131 80 -280 80 -317 0 -15 -22 -40 -68
-79 -135 -112 -318 -282 -381 -351 -61 -68 -63 -72 -58 -114 5 -47 31 -86 162
-242 253 -301 631 -569 829 -587 43 -4 79 4 241 59 105 36 191 64 192 63 1 -1
-7 -56 -17 -121 -25 -150 -27 -432 -5 -579 8 -55 13 -101 11 -104 -5 -4 -115
28 -286 83 -58 19 -262 82 -455 140 -192 59 -500 154 -684 211 -296 92 -338
103 -366 94 -47 -16 -71 -47 -95 -125 -12 -38 -66 -207 -120 -375 -54 -168
-140 -435 -190 -595 -51 -159 -120 -378 -155 -485 -35 -107 -98 -303 -140
-435 -43 -132 -80 -244 -84 -248 -7 -7 -91 96 -400 492 -63 80 -146 187 -186
236 -40 50 -86 110 -104 134 l-31 44 36 66 c96 175 367 557 535 754 46 54 94
111 107 126 l22 28 -92 33 c-196 68 -413 214 -555 372 -214 237 -335 492 -400
838 -14 74 -18 146 -17 330 0 216 2 245 27 360 56 266 157 512 280 687 83 118
261 295 367 365 218 144 441 217 690 226 25 1 93 -3 152 -8z m1900 -407 c91
-155 167 -333 217 -508 28 -101 33 -135 18 -135 -30 0 -263 55 -273 64 -27 25
-70 393 -61 516 6 83 23 140 41 140 7 0 33 -35 58 -77z m3211 -45 c67 -46 124
-84 125 -85 2 -1 -23 -28 -55 -60 -73 -72 -125 -148 -192 -281 l-51 -103 -45
31 c-50 34 -202 110 -222 110 -7 0 -13 3 -13 6 0 4 36 45 80 91 68 72 89 103
136 202 60 123 89 171 105 171 6 0 65 -37 132 -82z m-3150 -789 c336 -68 694
-196 910 -326 122 -74 282 -231 263 -261 -3 -5 -101 -12 -218 -15 -117 -3
-367 -11 -555 -18 -479 -17 -759 0 -1118 67 -77 15 -146 30 -153 34 -38 20
534 490 643 528 47 16 118 14 228 -9z m2671 -378 c77 -38 157 -119 194 -198
24 -52 27 -69 27 -168 -1 -139 -22 -199 -102 -285 -77 -83 -154 -120 -265
-127 -181 -12 -319 70 -401 237 -30 60 -32 72 -32 170 0 97 2 110 32 173 34
71 115 162 171 191 63 33 134 46 225 42 73 -3 98 -9 151 -35z m-3376 -410
c234 -48 360 -56 850 -56 254 0 462 -1 462 -2 0 -6 -175 -102 -261 -142 -193
-91 -516 -211 -568 -211 -56 0 -252 117 -401 237 -88 72 -223 209 -197 199 10
-3 62 -15 115 -25z m-643 -1075 c77 -24 385 -120 685 -211 300 -92 725 -222
945 -290 220 -68 549 -169 730 -225 632 -194 850 -262 861 -269 8 -4 -6 -62
-46 -186 -32 -99 -99 -310 -149 -470 l-92 -290 -52 -49 c-28 -26 -101 -90
-162 -141 -214 -178 -320 -368 -334 -595 l-6 -105 -43 -10 c-30 -8 -48 -19
-61 -41 -40 -66 -109 -108 -200 -123 -34 -5 -80 -20 -102 -33 l-40 -22 30 -11
c101 -34 173 -134 174 -239 1 -197 -186 -318 -366 -238 -48 22 -107 77 -129
121 l-15 31 -38 -121 -38 -121 -33 7 c-18 3 -109 30 -201 60 -92 29 -240 74
-328 100 -88 26 -236 71 -330 100 -93 30 -226 70 -295 89 -208 59 -319 93
-442 135 -64 21 -156 49 -205 61 -48 12 -115 31 -148 42 -107 36 -224 66 -231
59 -4 -3 -5 1 -2 9 16 45 52 145 53 147 0 1 23 -9 50 -23 44 -23 59 -25 127
-21 91 4 152 36 205 105 123 162 18 405 -185 429 -80 9 -155 -19 -217 -80
l-52 -52 -34 49 c-19 28 -62 86 -97 131 -55 69 -63 84 -59 112 3 17 32 116 65
220 33 103 106 332 162 508 56 176 123 388 150 470 27 83 94 294 150 470 161
510 180 564 193 560 7 -2 75 -24 152 -49z m4011 -184 c73 -48 146 -123 176
-180 l23 -44 -55 -49 c-30 -27 -59 -49 -65 -49 -5 0 -20 18 -32 39 -35 61
-120 148 -184 187 -32 20 -59 40 -59 44 0 12 104 90 121 90 9 0 42 -17 75 -38z
m-6191 -732 c121 -157 316 -409 435 -560 348 -443 768 -986 814 -1055 84 -122
98 -235 39 -319 -32 -45 -101 -92 -149 -102 l-32 -6 14 53 c34 129 14 187
-118 354 -116 146 -216 274 -639 820 -163 209 -400 514 -528 678 -128 163
-229 302 -226 308 15 23 158 130 165 122 4 -4 105 -136 225 -293z m5385 -1101
c25 -47 35 -114 26 -164 -13 -69 -118 -155 -366 -300 -142 -83 -173 -106 -212
-159 l-31 -41 7 35 c11 58 69 171 125 240 56 70 127 135 233 212 84 61 142
126 164 184 9 24 21 41 25 38 5 -3 18 -23 29 -45z m-6487 -362 c476 -434 971
-697 1527 -811 69 -14 169 -30 224 -35 54 -5 100 -12 102 -14 3 -2 -1 -17 -7
-33 -21 -54 -120 -369 -139 -442 -17 -65 -18 -77 -6 -107 19 -45 43 -55 258
-119 101 -30 264 -79 363 -109 99 -31 347 -106 550 -167 204 -61 433 -131 510
-155 77 -24 318 -97 535 -164 453 -137 450 -136 450 -153 0 -7 -9 -43 -19 -80
-11 -37 -27 -112 -36 -165 -9 -54 -22 -101 -28 -106 -56 -37 -228 -128 -324
-172 -234 -105 -384 -151 -668 -205 -107 -20 -437 -61 -443 -55 -2 2 14 33 36
69 79 132 131 351 117 501 -16 172 -68 322 -159 459 -98 147 -211 233 -400
304 -156 59 -356 60 -519 4 -260 -89 -441 -282 -523 -559 -20 -68 -28 -120
-33 -227 l-6 -139 -73 78 c-233 249 -416 684 -478 1132 -19 136 -26 511 -11
610 l8 52 -130 66 c-296 151 -517 305 -800 559 -66 60 -121 113 -121 118 0 9
131 158 138 158 2 0 49 -42 105 -93z m2945 -59 c74 -49 111 -163 78 -241 -17
-41 -71 -95 -113 -113 -72 -31 -175 -9 -215 46 -26 36 -52 151 -44 195 8 42
67 112 111 132 47 21 136 12 183 -19z m2793 -546 c47 -94 51 -106 41 -135 -19
-57 -78 -245 -180 -567 -122 -387 -285 -896 -310 -970 -11 -33 -26 -56 -35
-58 -9 -2 -133 33 -274 77 -142 44 -361 111 -488 150 -592 180 -819 249 -1055
321 -431 132 -769 235 -1140 348 l-355 108 3 30 c1 16 32 121 70 234 l67 205
77 12 c143 22 242 59 340 129 l46 33 164 -50 c238 -73 1242 -377 1393 -422 28
-8 104 -31 170 -51 66 -21 215 -66 330 -101 116 -34 329 -100 473 -145 145
-45 269 -79 275 -77 7 2 31 67 54 143 63 211 277 893 280 890 0 0 25 -47 54
-104z m-436 -581 c-6 -5 -28 -12 -50 -15 l-40 -6 40 14 c50 17 62 19 50 7z
m-6980 -607 c50 -14 128 -32 175 -40 106 -17 313 -17 402 0 l68 13 31 -81 c96
-250 278 -528 494 -754 90 -95 97 -91 -90 -40 -146 40 -243 77 -356 133 -348
176 -600 398 -772 684 -32 52 -57 98 -57 103 0 12 7 11 105 -18z m3979 -199
c144 -38 288 -148 353 -271 148 -280 85 -619 -149 -796 -249 -189 -603 -117
-772 155 -76 123 -91 179 -90 347 0 125 3 153 22 205 62 165 204 306 360 356
71 23 197 24 276 4z m-4240 -79 c119 -203 367 -452 606 -608 303 -198 654
-324 1129 -404 112 -19 206 -35 207 -37 1 -1 -443 -3 -987 -5 l-989 -2 0 534
c0 294 -3 541 -6 550 -13 34 15 14 40 -28z m7516 -180 c41 -91 53 -164 47
-286 -6 -138 -34 -227 -101 -328 -90 -134 -216 -233 -349 -274 -55 -16 -87
-19 -170 -16 -89 3 -111 8 -170 35 -121 57 -215 176 -252 320 -17 65 -19 206
-5 273 15 67 51 150 64 150 7 0 46 -11 87 -25 185 -64 593 -185 622 -185 60 0
71 18 134 205 31 96 61 175 66 175 4 0 17 -20 27 -44z m-1196 -792 c20 -42 36
-78 36 -80 0 -7 -356 -4 -363 3 -6 5 253 142 284 151 4 1 23 -32 43 -74z"/>
<path d="M13527 15505 c-11 -27 -8 -35 13 -35 25 0 25 -2 -6 -114 -15 -52 -24
-101 -21 -110 4 -10 18 -16 36 -16 27 0 31 4 41 43 6 23 24 83 40 132 32 102
32 102 -48 112 -40 4 -50 2 -55 -12z"/>
<path d="M13709 15410 c-71 -74 -73 -190 -5 -236 58 -37 130 -18 180 49 20 28
33 117 22 161 -8 34 -64 66 -116 66 -37 0 -48 -5 -81 -40z m119 -32 c39 -39
-24 -181 -72 -162 -24 9 -30 50 -16 97 20 68 57 96 88 65z"/>
<path d="M12559 14862 c-18 -14 -64 -52 -100 -83 -37 -31 -112 -88 -168 -125
-56 -38 -101 -71 -100 -74 0 -3 36 -23 80 -44 172 -86 253 -175 300 -329 17
-56 34 -110 38 -121 6 -16 19 -8 96 59 50 42 129 107 177 143 49 37 88 73 88
80 0 8 -18 60 -40 117 -62 158 -132 257 -239 339 -88 68 -92 69 -132 38z m67
-183 c19 -22 19 -22 -2 -9 -19 12 -27 10 -65 -20 -24 -18 -48 -37 -53 -41 -5
-5 29 -46 78 -93 48 -46 89 -90 91 -98 8 -36 18 -58 25 -58 4 0 23 14 40 30
32 30 33 31 20 71 -8 22 -17 42 -21 45 -5 3 -2 -14 6 -37 18 -49 18 -49 7 -49
-5 0 -14 10 -20 23 -7 14 -11 17 -11 7 -1 -9 4 -21 11 -28 6 -6 8 -15 4 -19
-4 -5 -13 0 -20 9 -7 10 -16 15 -19 11 -4 -3 -8 0 -8 8 -1 8 -2 21 -3 29 0 8
-9 14 -18 12 -10 -2 -18 2 -18 8 0 5 5 10 10 10 6 0 16 12 23 28 18 41 33 54
45 39 16 -20 44 -79 53 -111 8 -28 5 -34 -38 -73 l-47 -43 -20 33 c-60 100
-81 127 -135 181 l-60 59 62 48 c34 26 62 48 63 48 0 1 9 -9 20 -20z m78 -84
c3 -8 1 -15 -4 -15 -6 0 -10 7 -10 15 0 8 2 15 4 15 2 0 6 -7 10 -15z m11
-205 c3 -5 1 -10 -4 -10 -6 0 -11 5 -11 10 0 6 2 10 4 10 3 0 8 -4 11 -10z"/>
<path d="M12710 14541 c0 -5 5 -13 10 -16 6 -3 10 -2 10 4 0 5 -4 13 -10 16
-5 3 -10 2 -10 -4z"/>
<path d="M12700 14501 c0 -6 4 -13 10 -16 6 -3 7 1 4 9 -7 18 -14 21 -14 7z"/>
<path d="M14456 14823 c-2 -10 -10 -45 -16 -78 -23 -119 -128 -260 -259 -347
l-53 -36 43 -22 c24 -13 97 -54 161 -92 l117 -70 86 41 c106 52 189 129 235
221 41 80 83 242 66 252 -15 10 -359 148 -368 148 -4 0 -9 -8 -12 -17z m164
-208 c28 -14 50 -32 50 -41 0 -28 -51 -115 -90 -153 -21 -20 -57 -46 -80 -56
-35 -16 -44 -16 -65 -5 -14 7 -25 18 -25 24 0 6 20 36 45 66 25 30 60 85 78
122 17 38 33 68 35 68 1 0 25 -11 52 -25z"/>
<path d="M13516 14104 c-193 -47 -369 -222 -421 -420 -48 -185 13 -402 153
-543 219 -220 568 -229 795 -21 293 269 222 760 -137 942 -109 55 -266 72
-390 42z m262 -159 c67 -20 168 -89 208 -142 73 -96 102 -255 69 -368 -47
-163 -174 -278 -337 -307 -171 -30 -363 75 -442 242 -29 60 -31 73 -31 170 0
86 5 115 24 163 42 107 131 196 236 237 63 24 199 27 273 5z"/>
<path d="M13675 13716 c-51 -31 -74 -68 -55 -91 17 -21 37 -19 50 5 17 32 49
45 67 27 21 -20 9 -83 -28 -154 -30 -57 -31 -93 -2 -93 20 0 178 74 187 88 9
15 -4 42 -21 42 -8 0 -28 -7 -44 -16 -39 -20 -45 -14 -25 24 25 49 30 105 12
140 -30 57 -76 67 -141 28z"/>
<path d="M13479 13620 c-45 -24 -61 -43 -53 -64 7 -18 27 -21 55 -6 15 9 21 7
26 -7 14 -42 81 -181 89 -186 5 -3 21 0 36 6 l28 12 -58 130 c-32 72 -65 131
-73 132 -8 1 -30 -6 -50 -17z"/>
<path d="M13363 11740 c-179 -32 -322 -141 -402 -305 -39 -82 -55 -155 -55
-250 2 -301 240 -535 544 -535 308 0 550 241 550 548 0 245 -158 458 -388 526
-69 20 -183 27 -249 16z m261 -185 c250 -125 299 -441 98 -642 -30 -31 -80
-67 -111 -82 -49 -22 -69 -26 -157 -26 -94 0 -104 2 -167 34 -165 84 -259 278
-217 449 14 62 97 189 146 227 21 16 63 39 93 52 49 21 69 23 156 20 87 -3
108 -7 159 -32z"/>
<path d="M13376 11325 c-40 -21 -55 -44 -56 -83 0 -44 14 -68 50 -87 40 -21
72 -19 104 6 l26 20 0 -24 c0 -31 -14 -42 -67 -56 -36 -10 -43 -16 -43 -36 0
-23 4 -25 43 -25 110 0 176 107 129 213 -34 77 -115 109 -186 72z m98 -63 c15
-18 15 -20 -4 -37 -35 -32 -99 5 -69 41 16 20 53 17 73 -4z"/>
<path d="M14043 7343 c-73 -84 -156 -168 -251 -254 l-84 -75 37 -100 c75 -198
139 -307 258 -431 90 -94 183 -161 314 -226 l91 -46 22 72 c51 168 103 250
258 409 l94 97 -43 10 c-68 17 -197 70 -274 112 -183 100 -288 228 -344 417
-12 39 -23 72 -25 72 -2 0 -26 -26 -53 -57z m31 -260 c64 -123 170 -220 341
-309 49 -26 91 -48 93 -50 2 -1 -25 -40 -60 -86 -35 -46 -76 -111 -92 -146
-16 -34 -35 -62 -41 -62 -17 0 -124 76 -173 123 -104 100 -191 233 -232 356
l-21 64 78 78 c43 43 79 79 80 79 2 0 14 -21 27 -47z"/>
<path d="M10030 13221 c-88 -28 -151 -65 -212 -123 -107 -104 -164 -232 -156
-350 4 -55 8 -64 40 -94 47 -42 95 -52 153 -30 52 20 77 55 98 138 21 81 46
118 102 153 42 26 58 30 120 30 62 0 77 -4 111 -27 53 -38 84 -86 101 -161 8
-34 21 -72 29 -84 19 -30 85 -63 127 -63 40 0 96 35 114 70 32 62 6 227 -50
322 -35 61 -147 165 -204 190 -116 51 -268 63 -373 29z"/>
<path d="M14440 12375 c-11 -13 -9 -20 13 -43 51 -53 33 -76 -68 -92 -37 -6
-72 -13 -77 -16 -14 -9 -9 -40 10 -56 31 -28 151 -90 162 -83 23 14 9 45 -31
66 -47 24 -44 30 27 53 29 9 58 25 67 34 38 44 28 100 -25 132 -40 24 -61 25
-78 5z"/>
<path d="M14610 12238 c-11 -12 -20 -33 -20 -47 0 -18 -9 -31 -29 -42 -76 -44
-31 -157 72 -179 65 -14 107 20 107 86 0 16 11 35 30 51 34 28 39 65 14 101
-37 53 -136 70 -174 30z m104 -44 c18 -7 22 -39 5 -49 -27 -18 -79 20 -63 46
6 10 35 12 58 3z m-49 -117 c27 -39 -20 -64 -57 -30 -21 18 -23 34 -7 50 15
15 47 5 64 -20z"/>
<path d="M10941 10732 c-11 -22 -116 -346 -125 -389 l-7 -32 103 -31 c57 -17
123 -38 147 -46 25 -7 46 -12 48 -11 1 2 9 25 17 51 11 35 11 48 3 52 -7 2
-48 14 -92 27 -67 20 -80 26 -77 43 2 10 24 85 49 166 26 82 44 150 41 153 -2
3 -26 11 -51 19 -43 13 -48 13 -56 -2z"/>
<path d="M11322 10579 c-52 -26 -96 -78 -117 -138 -54 -158 43 -296 216 -309
74 -5 111 9 167 61 38 37 72 121 72 180 0 57 -40 138 -84 172 -76 58 -178 71
-254 34z m140 -89 c51 -14 78 -52 78 -107 0 -72 -46 -137 -105 -148 -38 -7
-95 21 -112 55 -32 63 1 164 61 194 37 19 32 18 78 6z"/>
<path d="M11732 10483 c-5 -10 -12 -30 -16 -45 -6 -25 -3 -28 54 -49 33 -12
60 -24 60 -26 0 -2 -23 -77 -50 -165 -28 -88 -49 -162 -48 -163 14 -11 103
-33 109 -28 4 5 28 78 54 163 26 85 49 158 51 162 3 4 26 0 52 -7 26 -8 52
-15 59 -15 15 0 38 79 26 90 -11 10 -304 100 -325 100 -10 0 -21 -8 -26 -17z"/>
<path d="M12111 10359 c-15 -42 -14 -69 2 -69 6 0 31 -9 54 -20 40 -18 42 -20
33 -47 -4 -15 -27 -85 -49 -154 -23 -70 -41 -133 -41 -141 0 -8 21 -21 51 -30
60 -20 47 -38 114 172 26 80 48 146 49 147 1 1 26 -4 56 -12 42 -11 56 -12 62
-2 9 13 29 80 25 83 -3 3 -332 104 -339 104 -3 0 -11 -14 -17 -31z"/>
<path d="M12512 10238 c-5 -18 -35 -116 -66 -217 -31 -102 -53 -188 -49 -191
19 -17 286 -91 295 -82 5 5 12 27 15 49 l5 40 -48 12 c-27 7 -68 21 -92 31
-39 18 -42 22 -36 47 4 15 8 31 11 35 2 3 34 -2 71 -13 85 -24 91 -24 101 4
25 66 26 64 -34 82 -105 30 -105 30 -95 66 5 17 11 33 13 35 2 2 44 -8 95 -23
50 -15 94 -24 98 -21 3 4 8 24 11 46 6 45 9 43 -152 92 -55 17 -108 33 -117
36 -12 4 -19 -4 -26 -28z"/>
<path d="M10431 10189 c-7 -23 -15 -47 -18 -54 -3 -10 21 -21 84 -40 48 -15
151 -46 228 -70 77 -24 187 -58 245 -75 58 -18 184 -56 280 -86 226 -71 380
-118 455 -139 33 -10 116 -36 185 -58 187 -59 264 -83 378 -117 56 -16 147
-44 202 -60 55 -17 148 -44 207 -61 59 -17 121 -36 138 -44 38 -17 213 -71
420 -129 88 -25 180 -52 204 -61 24 -8 49 -15 56 -15 13 0 38 91 27 101 -7 7
-228 76 -592 186 -118 35 -327 100 -465 143 -137 43 -335 104 -440 135 -104
31 -311 94 -460 140 -148 46 -398 122 -555 170 -157 47 -347 106 -422 131 -75
24 -139 44 -141 44 -2 0 -9 -18 -16 -41z"/>
<path d="M12866 10103 c-8 -32 -38 -130 -66 -218 -27 -87 -47 -162 -42 -166 4
-3 28 -13 54 -22 l48 -16 21 75 c19 64 25 74 45 74 20 0 25 -9 44 -94 l22 -94
57 -16 c32 -9 60 -16 63 -16 4 0 -4 41 -18 91 -28 106 -28 109 -10 109 21 0
74 47 91 81 32 60 12 138 -44 178 -21 15 -227 91 -247 91 -1 0 -9 -26 -18 -57z
m190 -114 c11 -12 14 -27 10 -43 -9 -37 -34 -47 -85 -34 -39 10 -42 13 -38 37
3 14 10 38 16 53 9 25 12 26 45 16 20 -6 43 -19 52 -29z"/>
<path d="M13272 9923 c42 -171 43 -188 19 -276 -12 -42 -19 -81 -16 -87 6 -9
69 -30 91 -30 7 0 23 38 38 84 l26 85 116 108 115 108 -28 12 c-15 7 -43 15
-61 19 -32 6 -37 3 -94 -60 -33 -36 -63 -66 -68 -66 -4 0 -13 30 -19 68 -21
125 -18 119 -68 136 -85 29 -84 31 -51 -101z"/>
<path d="M10512 9824 c-59 -29 -116 -90 -133 -141 -15 -47 -7 -160 15 -206 77
-158 291 -205 422 -93 48 41 70 83 85 160 22 105 -42 230 -143 280 -73 37
-173 37 -246 0z m118 -69 c47 -24 52 -87 13 -133 -31 -36 -60 -37 -93 -3 -45
45 -38 120 13 141 31 12 34 12 67 -5z"/>
<path d="M11190 9474 c-26 -59 -25 -74 3 -74 32 0 60 -23 55 -46 -5 -27 -33
-29 -67 -5 -30 22 -41 19 -41 -10 0 -24 49 -49 94 -49 86 0 105 107 26 140
-17 7 -29 18 -27 24 4 11 21 12 67 5 17 -3 26 1 28 13 2 13 -10 21 -49 32 -29
9 -56 16 -61 16 -5 0 -18 -21 -28 -46z"/>
<path d="M11675 9366 c-24 -17 -13 -52 13 -41 22 10 53 8 64 -3 17 -17 -3 -37
-70 -73 -93 -49 -95 -70 -8 -93 36 -10 73 -15 82 -12 28 11 11 39 -31 51 l-40
11 37 13 c53 18 88 48 88 77 0 38 -16 61 -51 73 -42 14 -61 14 -84 -3z"/>
<path d="M11866 9318 c-9 -5 -16 -16 -16 -25 0 -12 7 -14 29 -10 21 4 34 1 46
-14 21 -23 17 -29 -26 -38 -43 -9 -47 -25 -9 -41 23 -9 30 -18 28 -34 -4 -29
-42 -32 -68 -6 -23 23 -50 21 -50 -4 0 -25 50 -56 91 -56 61 0 94 43 69 89 -7
14 -4 23 15 39 32 28 32 57 0 78 -34 22 -89 33 -109 22z"/>
<path d="M10363 9264 c-61 -22 -126 -84 -153 -145 -54 -126 8 -282 135 -344
50 -24 160 -31 211 -15 47 16 119 82 145 133 29 57 34 123 14 192 -13 46 -28
69 -73 114 -80 80 -174 102 -279 65z m186 -68 c91 -48 134 -161 95 -254 -48
-117 -177 -160 -281 -96 -174 108 -96 388 103 370 29 -2 66 -11 83 -20z"/>
<path d="M10488 9124 c-13 -29 -2 -57 26 -62 19 -4 39 42 31 69 -9 28 -43 23
-57 -7z"/>
<path d="M10449 9053 c-13 -16 -12 -17 4 -4 9 7 17 15 17 17 0 8 -8 3 -21 -13z"/>
<path d="M10410 9030 c-9 -6 -10 -10 -3 -10 6 0 15 5 18 10 8 12 4 12 -15 0z"/>
<path d="M10529 9004 c-18 -22 6 -63 48 -81 27 -11 34 -10 47 3 25 25 19 53
-16 74 -40 24 -61 25 -79 4z"/>
<path d="M10319 8985 c-10 -41 5 -62 52 -77 27 -7 44 -20 50 -34 5 -15 22 -27
47 -34 44 -11 67 -6 76 17 9 23 -11 41 -58 54 -22 7 -57 24 -76 39 -33 25 -88
47 -91 35z"/>
<path d="M12252 9134 c-40 -30 -72 -62 -72 -69 0 -8 23 -22 51 -32 38 -14 49
-22 46 -35 -9 -33 19 -42 52 -17 36 26 45 47 31 65 -8 9 -7 27 5 66 14 49 14
54 -2 65 -26 20 -35 17 -111 -43z m68 -9 c0 -16 -31 -76 -37 -72 -5 2 -17 7
-28 11 -18 7 -17 10 15 36 33 28 50 36 50 25z"/>
<path d="M12434 9114 c-8 -19 -17 -48 -21 -65 -5 -26 -3 -29 20 -29 55 0 76
-31 41 -61 -13 -11 -21 -10 -50 6 -54 29 -62 -6 -9 -41 59 -39 135 -4 135 62
0 33 -37 74 -66 74 -14 0 -19 21 -8 32 3 3 21 2 41 -4 19 -5 42 -7 51 -3 25 9
-4 31 -66 49 l-53 15 -15 -35z"/>
<path d="M12825 9019 c-20 -56 -35 -103 -35 -110 0 -5 15 -9 33 -9 37 0 57
-15 57 -42 0 -10 -2 -18 -4 -18 -2 0 -11 -3 -19 -6 -8 -3 -27 6 -42 20 -35 32
-58 34 -53 4 4 -28 62 -68 99 -68 56 0 88 67 58 122 -10 18 -8 24 7 34 53 36
53 58 1 68 -18 3 -47 8 -64 12 -23 4 -34 2 -38 -7z m64 -48 c18 -11 5 -31 -20
-31 -18 0 -26 20 -12 33 8 9 15 9 32 -2z"/>
<path d="M10942 8958 c-18 -18 -15 -28 8 -28 11 0 20 -3 20 -8 0 -4 -9 -39
-20 -77 -26 -92 -26 -97 8 -93 25 3 29 9 49 83 12 44 22 92 22 108 1 25 -2 27
-37 27 -21 0 -43 -5 -50 -12z"/>
<path d="M13014 8945 c-28 -19 -54 -75 -54 -117 0 -102 123 -129 170 -38 43
84 13 170 -59 170 -20 0 -46 -7 -57 -15z m80 -73 c-1 -44 -26 -92 -49 -92 -41
0 -35 95 8 125 31 22 42 13 41 -33z"/>
<path d="M11094 8914 c-10 -14 -18 -44 -18 -67 -1 -38 1 -42 26 -45 39 -5 56
-28 35 -49 -15 -16 -20 -15 -58 6 -30 17 -44 20 -52 12 -8 -8 -4 -18 15 -38
21 -21 37 -27 74 -27 39 -1 50 3 67 26 27 36 15 74 -30 103 -55 34 -38 66 21
41 37 -15 46 -13 46 14 0 17 -29 33 -82 44 -22 5 -31 1 -44 -20z"/>
<path d="M11510 8797 c-41 -21 -32 -42 19 -42 76 0 60 -40 -35 -90 -79 -40
-81 -59 -10 -80 82 -24 111 -24 111 0 0 15 -10 21 -45 28 l-45 9 42 17 c63 24
85 49 81 89 -5 55 -70 93 -118 69z"/>
<path d="M11674 8714 c-8 -19 -17 -48 -21 -65 -5 -28 -4 -29 35 -29 47 0 72
-21 52 -45 -17 -21 -43 -19 -70 5 -29 25 -40 25 -40 2 0 -30 46 -66 84 -66 54
0 86 27 86 73 0 41 -17 63 -62 77 -19 6 -25 13 -19 22 6 11 17 11 46 3 41 -11
55 -8 55 14 0 13 -78 45 -112 45 -12 0 -24 -13 -34 -36z"/>
<path d="M12137 8726 c-93 -25 -176 -122 -185 -215 -21 -224 264 -363 426
-208 56 54 77 102 76 182 -1 141 -81 230 -224 248 -25 3 -66 0 -93 -7z m33
-96 c22 -11 40 -22 40 -24 0 -3 3 -11 6 -20 4 -10 -6 -26 -26 -45 -27 -24 -30
-32 -21 -49 15 -29 14 -58 -5 -76 -24 -24 -115 -21 -148 5 -52 41 -23 72 43
46 33 -13 41 -14 50 -3 9 10 5 17 -14 30 -34 22 -32 51 5 66 42 17 37 30 -10
30 -39 0 -49 11 -32 36 19 28 62 30 112 4z m226 -72 c13 -13 13 -17 -3 -37
-16 -19 -22 -21 -46 -12 -15 6 -34 8 -43 4 -13 -5 -9 -10 17 -22 48 -23 64
-60 45 -104 -16 -40 -59 -60 -103 -48 -34 9 -73 64 -73 103 0 37 33 102 62
123 28 20 121 16 144 -7z"/>
<path d="M12270 8420 c0 -25 4 -31 18 -28 11 2 17 12 17 28 0 16 -6 26 -17 28
-14 3 -18 -3 -18 -28z"/>
<path d="M12640 8450 c0 -5 0 -13 -1 -17 0 -5 16 -13 37 -19 21 -6 39 -15 41
-21 2 -5 -24 -40 -58 -77 -34 -37 -60 -69 -58 -71 2 -2 16 -6 30 -10 23 -6 33
2 95 79 38 47 69 92 69 98 0 7 -27 20 -60 30 -71 19 -95 22 -95 8z"/>
<path d="M10740 8405 c-17 -21 -5 -49 18 -40 37 16 57 11 57 -15 0 -20 -11
-31 -59 -57 -61 -32 -92 -61 -79 -74 5 -4 40 -16 80 -27 62 -17 72 -18 77 -5
11 27 6 32 -35 44 l-41 13 50 22 c76 33 96 93 46 133 -31 25 -96 28 -114 6z"/>
<path d="M12827 8403 c-17 -16 -4 -34 33 -49 22 -9 40 -19 40 -23 0 -3 -27
-37 -60 -74 -60 -68 -66 -87 -30 -87 22 0 173 166 167 183 -2 7 -32 22 -68 34
-75 25 -74 25 -82 16z"/>
<path d="M10925 8336 c-50 -50 -57 -159 -12 -191 28 -19 76 -19 105 1 56 39
71 146 27 189 -33 33 -87 34 -120 1z m93 -29 c19 -23 -12 -119 -42 -130 -15
-6 -46 16 -46 32 0 18 24 77 38 94 18 20 36 22 50 4z"/>
<path d="M11317 8233 c-18 -18 -4 -32 36 -35 34 -2 42 -7 42 -23 0 -14 -8 -21
-25 -23 -41 -6 -46 -19 -16 -47 15 -14 24 -30 21 -35 -9 -15 -43 -12 -70 6
-26 17 -45 12 -45 -12 0 -22 60 -54 101 -54 55 0 91 54 57 88 -8 8 -6 16 10
29 36 31 33 77 -8 98 -30 15 -91 20 -103 8z"/>
<path d="M11505 8173 c-20 -20 -10 -31 35 -35 47 -4 48 -31 0 -38 -46 -7 -51
-33 -10 -50 40 -17 42 -50 2 -50 -15 0 -38 7 -51 16 -18 13 -25 14 -31 4 -30
-49 103 -97 143 -52 20 22 22 63 5 80 -9 9 -5 16 16 33 34 27 33 69 -4 85 -47
22 -88 24 -105 7z"/>
<path d="M11884 8056 c-9 -22 -2 -28 43 -35 44 -7 52 -34 13 -40 -38 -5 -42
-23 -13 -53 14 -14 22 -31 19 -37 -10 -15 -47 -13 -70 4 -27 20 -48 19 -44 -2
5 -25 66 -63 103 -63 45 0 69 29 62 76 -5 27 -1 43 14 64 36 48 7 85 -76 97
-36 5 -46 2 -51 -11z"/>
<path d="M12100 8003 c-74 -27 -62 -143 16 -143 16 0 24 -5 21 -12 -2 -8 -24
-13 -57 -13 -32 0 -55 -5 -57 -12 -6 -16 49 -43 86 -43 64 0 122 89 106 162
-10 45 -70 77 -115 61z m59 -57 c15 -18 4 -46 -19 -46 -28 0 -45 27 -30 45 16
19 34 19 49 1z"/>
<path d="M12470 7828 c-66 -51 -87 -74 -75 -86 3 -4 27 -14 53 -23 41 -14 47
-19 44 -42 -4 -39 27 -38 67 0 31 30 33 35 18 46 -15 11 -15 16 2 72 21 64 19
70 -19 78 -19 4 -40 -6 -90 -45z m60 -18 c0 -23 -25 -60 -40 -60 -30 0 -31 13
-3 42 27 29 43 35 43 18z"/>
<path d="M12650 7792 c-34 -34 -54 -100 -41 -134 24 -62 99 -82 146 -38 35 33
50 93 36 142 -20 65 -91 80 -141 30z m88 -46 c5 -40 -5 -73 -29 -97 -41 -41
-67 27 -34 91 25 48 58 51 63 6z"/>
<path d="M10327 8563 c-2 -5 -5 -44 -6 -88 -1 -44 -5 -83 -8 -88 -3 -5 -22 -6
-43 -2 -46 8 -80 -8 -80 -36 0 -31 41 -44 78 -25 43 22 50 20 54 -11 4 -37 37
-37 57 -1 14 24 14 28 -2 45 -15 17 -16 28 -5 99 6 44 9 88 5 97 -6 17 -42 24
-50 10z"/>
<path d="M10027 7773 c-4 -3 -7 -93 -7 -199 0 -215 -4 -203 71 -224 33 -10 29
-14 112 115 l52 80 3 -122 3 -122 34 -11 c19 -6 41 -10 50 -8 13 3 225 311
225 327 0 8 -60 31 -82 31 -10 0 -42 -42 -80 -102 l-63 -103 -3 126 -3 127
-40 10 -40 10 -61 -91 c-33 -51 -65 -96 -70 -102 -7 -6 -8 33 -3 111 l7 121
-48 17 c-56 19 -49 18 -57 9z"/>
<path d="M10611 7562 c-49 -155 -102 -335 -98 -338 2 -2 25 -10 50 -18 l47
-14 10 42 c16 62 92 320 97 329 4 7 -22 19 -68 30 -23 6 -27 3 -38 -31z"/>
<path d="M10790 7528 c-13 -31 -100 -332 -100 -346 0 -9 58 -32 82 -32 4 0 21
45 38 100 17 55 33 100 35 100 2 0 20 -51 40 -112 47 -144 47 -143 94 -156 40
-10 40 -9 50 22 68 215 101 340 94 346 -4 5 -25 13 -45 18 l-38 10 -33 -106
-34 -107 -41 125 c-41 127 -51 142 -105 154 -22 5 -29 2 -37 -16z"/>
<path d="M11345 7368 c-2 -7 -29 -91 -58 -185 l-54 -173 93 -30 c125 -40 185
-40 225 -1 33 34 39 83 13 119 -14 21 -14 24 15 47 52 44 50 124 -4 159 -20
13 -200 76 -218 76 -4 0 -10 -6 -12 -12z m126 -98 c5 0 18 -9 29 -20 16 -16
18 -25 10 -40 -12 -22 -44 -26 -85 -10 -21 8 -25 14 -19 33 10 33 25 49 41 42
8 -3 19 -5 24 -5z m-4 -165 c29 -19 29 -40 0 -59 -18 -12 -30 -13 -65 -4 -44
11 -48 20 -32 64 9 23 14 26 42 20 18 -3 42 -13 55 -21z"/>
<path d="M11715 7258 c-2 -7 -27 -85 -54 -174 -28 -88 -53 -167 -56 -176 -5
-11 5 -18 40 -28 27 -8 50 -9 55 -4 4 5 22 60 40 122 17 62 40 138 51 169 10
31 19 61 19 68 0 7 -17 17 -39 23 -48 15 -51 15 -56 0z"/>
<path d="M11975 7171 c-69 -17 -134 -69 -154 -124 -17 -45 -13 -124 8 -165 26
-50 58 -78 110 -97 47 -16 147 -20 169 -6 9 6 62 148 62 168 0 4 -127 43 -142
43 -26 0 -36 -49 -13 -66 10 -7 22 -15 28 -17 5 -1 7 -13 3 -25 -11 -34 -69
-30 -107 7 -24 24 -29 38 -29 76 0 40 5 52 34 81 47 47 100 48 151 3 l35 -31
36 27 36 27 -29 30 c-52 55 -135 84 -198 69z"/>
<path d="M12285 7087 c-13 -35 -45 -192 -45 -217 0 -23 5 -31 25 -36 14 -4 28
-5 30 -2 15 14 101 229 94 233 -4 3 -29 12 -54 20 -35 10 -47 10 -50 2z"/>
<path d="M12195 6779 c-34 -42 -29 -59 24 -77 41 -14 45 -13 58 4 20 28 16 71
-9 88 -32 23 -43 20 -73 -15z"/>
</g>
</svg>
